<svg width="28" height="28" viewBox="0 0 28 28" fill="none" xmlns="http://www.w3.org/2000/svg">
<g id="Facebook " clip-path="url(#clip0_216_2466)">
<path id="Vector" d="M28 13.998C28 6.26605 21.732 -0.00195312 14 -0.00195312C6.26801 -0.00195312 0 6.26605 0 13.998C0 20.9857 5.11957 26.7777 11.8125 27.828V18.0449H8.25781V13.998H11.8125V10.9137C11.8125 7.40492 13.9027 5.46679 17.1005 5.46679C18.6318 5.46679 20.2344 5.74023 20.2344 5.74023V9.18554H18.4691C16.73 9.18554 16.1875 10.2648 16.1875 11.373V13.998H20.0703L19.4496 18.0449H16.1875V27.828C22.8804 26.7777 28 20.9857 28 13.998Z" fill="#1B85F3"/>
<path id="Vector_2" d="M19.4496 18.0447L20.0703 13.9978H16.1875V11.3728C16.1875 10.2657 16.73 9.1853 18.4691 9.1853H20.2344V5.73999C20.2344 5.73999 18.6323 5.46655 17.1005 5.46655C13.9027 5.46655 11.8125 7.40468 11.8125 10.9134V13.9978H8.25781V18.0447H11.8125V27.8277C13.262 28.0545 14.738 28.0545 16.1875 27.8277V18.0447H19.4496Z" fill="white"/>
</g>
<defs>
<clipPath id="clip0_216_2466">
<rect width="28" height="28" fill="white"/>
</clipPath>
</defs>
</svg>
