<svg width="28" height="28" viewBox="0 0 28 28" fill="none" xmlns="http://www.w3.org/2000/svg">
<g id="Logo">
<path id="Shape" fill-rule="evenodd" clip-rule="evenodd" d="M27.44 14.3182C27.44 13.3255 27.3509 12.371 27.1854 11.4546H14V16.87H21.5345C21.21 18.62 20.2236 20.1028 18.7409 21.0955V24.6082H23.2654C25.9127 22.1709 27.44 18.5819 27.44 14.3182Z" fill="#4285F4"/>
<path id="Shape_2" fill-rule="evenodd" clip-rule="evenodd" d="M14.0002 28C17.7801 28 20.9492 26.7464 23.2656 24.6082L18.7411 21.0955C17.4874 21.9355 15.8838 22.4318 14.0002 22.4318C10.3538 22.4318 7.26743 19.9691 6.16652 16.66H1.48926V20.2873C3.79289 24.8627 8.52743 28 14.0002 28Z" fill="#34A853"/>
<path id="Shape_3" fill-rule="evenodd" clip-rule="evenodd" d="M6.16636 16.66C5.88636 15.82 5.72726 14.9228 5.72726 14C5.72726 13.0773 5.88636 12.18 6.16636 11.34V7.71277H1.48909C0.540908 9.60277 0 11.7409 0 14C0 16.2591 0.540908 18.3973 1.48909 20.2873L6.16636 16.66Z" fill="#FBBC05"/>
<path id="Shape_4" fill-rule="evenodd" clip-rule="evenodd" d="M14.0001 5.56817C16.0556 5.56817 17.9011 6.27454 19.352 7.66181L23.3674 3.64636C20.9429 1.38727 17.7738 0 14.0001 0C8.52743 0 3.79289 3.13727 1.48926 7.71272L6.16652 11.34C7.26743 8.0309 10.3538 5.56817 14.0001 5.56817Z" fill="#EA4335"/>
</g>
</svg>
