<svg width="40" height="40" viewBox="0 0 40 40" fill="none" xmlns="http://www.w3.org/2000/svg">
<rect x="0.5" y="0.5" width="39" height="39" rx="7.5" stroke="#D7D9E4"/>
<path d="M25.5 16.3334C25.5 14.8747 24.9205 13.4757 23.8891 12.4443C22.8576 11.4128 21.4587 10.8334 20 10.8334C18.5413 10.8334 17.1424 11.4128 16.1109 12.4443C15.0795 13.4757 14.5 14.8747 14.5 16.3334C14.5 22.75 11.75 24.5834 11.75 24.5834H28.25C28.25 24.5834 25.5 22.75 25.5 16.3334Z" stroke="#0C0F14" stroke-width="1.83333" stroke-linecap="round" stroke-linejoin="round"/>
<path d="M21.5857 28.25C21.4246 28.5278 21.1933 28.7584 20.9149 28.9187C20.6366 29.079 20.3211 29.1634 19.9999 29.1634C19.6787 29.1634 19.3632 29.079 19.0849 28.9187C18.8065 28.7584 18.5752 28.5278 18.4141 28.25" stroke="#0C0F14" stroke-width="1.83333" stroke-linecap="round" stroke-linejoin="round"/>
<circle cx="24" cy="13" r="3.75" fill="#6F4F9F" stroke="white" stroke-width="1.5"/>
</svg>
