<svg width="18" height="18" viewBox="0 0 18 18" fill="none" xmlns="http://www.w3.org/2000/svg">
<g id="arrow_drop_down_FILL1_wght300_GRAD0_opsz24 1">
<path id="Vector" d="M8.37136 12.596L2.2714 6.49614C2.18726 6.41199 2.12099 6.31804 2.07259 6.21428C2.0242 6.11049 2 5.99929 2 5.88069C2 5.64349 2.08021 5.43741 2.24062 5.26245C2.401 5.08748 2.61241 5 2.87484 5H15.7255C15.9879 5 16.1993 5.08832 16.3597 5.26496C16.5201 5.44164 16.6003 5.64774 16.6003 5.88326C16.6003 5.94217 16.5097 6.14659 16.3285 6.49652L10.229 12.5961C10.0887 12.7363 9.9438 12.8387 9.79413 12.9032C9.64442 12.9677 9.47977 13 9.30016 13C9.12055 13 8.95589 12.9677 8.80619 12.9032C8.65652 12.8387 8.51158 12.7363 8.37136 12.596Z" fill="#6F7889"/>
</g>
</svg>
