<svg width="18" height="18" viewBox="0 0 18 18" fill="none" xmlns="http://www.w3.org/2000/svg">
<g id="arrow_drop_down_FILL1_wght300_GRAD0_opsz24 1">
<path id="Vector" d="M8.37136 5.40395L2.2714 11.5039C2.18726 11.588 2.12099 11.682 2.07259 11.7857C2.0242 11.8895 2 12.0007 2 12.1193C2 12.3565 2.08021 12.5626 2.24062 12.7376C2.401 12.9125 2.61241 13 2.87484 13H15.7255C15.9879 13 16.1993 12.9117 16.3597 12.735C16.5201 12.5584 16.6003 12.3523 16.6003 12.1167C16.6003 12.0578 16.5097 11.8534 16.3285 11.5035L10.229 5.40391C10.0887 5.26369 9.9438 5.16132 9.79413 5.09679C9.64442 5.03226 9.47977 5 9.30016 5C9.12055 5 8.95589 5.03226 8.80619 5.09679C8.65652 5.16132 8.51158 5.26371 8.37136 5.40395Z" fill="#6F7889"/>
</g>
</svg>
