<svg width="33" height="32" viewBox="0 0 33 32" fill="none" xmlns="http://www.w3.org/2000/svg">
<g id="logos:bitcoin" clip-path="url(#clip0_871_5046)">
<path id="Vector" d="M31.9716 19.8695C29.8338 28.4455 21.1449 33.6587 12.5812 31.5209C4.00493 29.3831 -1.20832 20.6946 0.929553 12.131C3.0673 3.55498 11.7436 -1.65827 20.3198 0.479603C28.8836 2.60485 34.1094 11.2934 31.9716 19.8695Z" fill="url(#paint0_linear_871_5046)"/>
<path id="Vector_2" d="M24.0689 14.0064C24.3814 11.8814 22.7689 10.7314 20.5439 9.9689L21.2689 7.0814L19.5189 6.6439L18.8189 9.4564C18.3564 9.3439 17.8814 9.2314 17.4064 9.1314L18.1064 6.3064L16.3564 5.8689L15.6439 8.7439C15.2564 8.6564 14.8814 8.5689 14.5189 8.4814V8.4689L12.0939 7.8689L11.6314 9.7439C11.6314 9.7439 12.9314 10.0439 12.9064 10.0564C13.6189 10.2314 13.7439 10.7064 13.7189 11.0814L12.8939 14.3689C12.9439 14.3814 13.0064 14.3939 13.0814 14.4314C13.0189 14.4189 12.9564 14.4064 12.8939 14.3814L11.7439 18.9814C11.6564 19.1939 11.4314 19.5189 10.9439 19.3939C10.9564 19.4189 9.66895 19.0814 9.66895 19.0814L8.79395 21.0939L11.0814 21.6689C11.5064 21.7814 11.9189 21.8814 12.3314 21.9939L11.6064 24.9064L13.3564 25.3439L14.0814 22.4564C14.5564 22.5814 15.0314 22.7064 15.4814 22.8189L14.7689 25.6939L16.5189 26.1314L17.2439 23.2189C20.2439 23.7814 22.4939 23.5564 23.4314 20.8439C24.1939 18.6689 23.3939 17.4064 21.8189 16.5814C22.9814 16.3189 23.8439 15.5564 24.0689 14.0064ZM20.0564 19.6314C19.5189 21.8064 15.8439 20.6314 14.6564 20.3314L15.6189 16.4689C16.8064 16.7689 20.6314 17.3564 20.0564 19.6314ZM20.6064 13.9689C20.1064 15.9564 17.0564 14.9439 16.0689 14.6939L16.9439 11.1939C17.9314 11.4439 21.1189 11.9064 20.6064 13.9689Z" fill="#F1F1F1"/>
</g>
<defs>
<linearGradient id="paint0_linear_871_5046" x1="16.4415" y1="-0.00743585" x2="16.4415" y2="31.997" gradientUnits="userSpaceOnUse">
<stop stop-color="#F9AA4B"/>
<stop offset="1" stop-color="#F7931A"/>
</linearGradient>
<clipPath id="clip0_871_5046">
<rect width="32" height="32" fill="white" transform="translate(0.450195)"/>
</clipPath>
</defs>
</svg>
